<svg id="Layer_1" data-name="Layer 1" xmlns="http://www.w3.org/2000/svg" viewBox="0 0 408.97 339.44"><defs><style>.cls-1{fill:#7e6d62;}.cls-2{fill:#9a8479;}.cls-3{fill:#fff;}.cls-4{fill:#453b34;}</style></defs><title>Artboard 7</title><polygon class="cls-1" points="139.03 103.29 201.07 223.54 243.56 305.88 375.55 233.55 274.87 33.48 139.03 103.29"/><polygon class="cls-2" points="34.57 258.02 234.31 305.46 133.19 109.46 34.57 258.02"/><path class="cls-3" d="M301.69,15.43A28.35,28.35,0,0,0,285.24,1.35,28,28,0,0,0,276.63,0,28.26,28.26,0,0,0,263.8,3.1L120.09,77l-3,1.77-.66.62a27.83,27.83,0,0,0-3.18,2.9l-1.89,2L4.66,245.09A28.06,28.06,0,0,0,21.57,287.9l213.76,50.77a28.27,28.27,0,0,0,6.55.77,27.65,27.65,0,0,0,10-1.85l1-.33L255,336.2l139.37-76.38a28,28,0,0,0,11.59-37.23Zm81.1,223.29-139,76.17a.61.61,0,0,1-.12.05l-.19.08a4.11,4.11,0,0,1-1.61.37,4.22,4.22,0,0,1-.93-.11L27.13,264.5a4,4,0,0,1-2.42-6.12l105.58-159c.06-.09.14-.16.2-.24a2.62,2.62,0,0,1,.22-.25,3.84,3.84,0,0,1,1-.82l.06,0,143-73.51a4.07,4.07,0,0,1,3.08-.24,4,4,0,0,1,2.34,2L384.45,233.4A4,4,0,0,1,382.79,238.72Z"/><path class="cls-4" d="M280.21,26.26a4,4,0,0,0-2.34-2,4.07,4.07,0,0,0-3.08.24L131.8,98l-.06,0a3.84,3.84,0,0,0-1,.82,2.62,2.62,0,0,0-.22.25c-.06.08-.14.15-.2.24l-105.58,159a4,4,0,0,0,2.42,6.12L241,315.28a4.22,4.22,0,0,0,.93.11,4.11,4.11,0,0,0,1.61-.37l.19-.08a.61.61,0,0,0,.12-.05l139-76.17a4,4,0,0,0,1.66-5.32ZM34.57,258l98.62-148.56,101.12,196Zm209,47.87-42.49-82.35L139,103.29,274.86,33.48,375.55,233.55Z"/></svg>