<svg id="Layer_1" data-name="Layer 1" xmlns="http://www.w3.org/2000/svg" viewBox="0 0 373.98 381.88"><defs><style>.cls-1{fill:#f27469;}.cls-2{fill:#f48d87;}.cls-3{fill:#fff;}.cls-4{fill:#f0564b;}.cls-5{fill:#80271e;}</style></defs><title>Artboard 5</title><polygon class="cls-1" points="106.37 112.66 32.25 72.88 34.18 310.25 107.34 347.28 107.16 303.89 106.37 112.66"/><polygon class="cls-2" points="253.17 32.22 40.39 68.16 111.03 106.06 329.47 66.52 253.17 32.22"/><path class="cls-3" d="M370.94,63.91l-.8-2.3a27.51,27.51,0,0,0-.78-2.66l-.73-2.16-.89-1.66A27.62,27.62,0,0,0,365.08,51l-1-1.74-3.82-3.16a22.37,22.37,0,0,0-2.06-1.44,26.16,26.16,0,0,0-3.75-2.08L265.25,2.49A27.84,27.84,0,0,0,253.7,0,29.1,29.1,0,0,0,249,.39L23.35,38.51,20.66,39l-1.44.6c-.62.21-1.23.44-1.84.7l-1.79.7-1.8,1.07a26.5,26.5,0,0,0-3.34,2.36l-1.19.88L7.88,46.79a28.83,28.83,0,0,0-4.55,6.34l-.87,1.71L2.06,56c-.18.46-.35.92-.5,1.38L.89,59,.5,61.53,0,64.25l.11,1.51,2,247.18a28,28,0,0,0,15.39,24.82L98.8,378.91l3.72,1.83,2,.26a27.06,27.06,0,0,0,6.86.88,28.63,28.63,0,0,0,5.19-.48L351.1,337.29A28,28,0,0,0,374,309.37L371,68.11ZM346.66,313.65l-234.55,44.1a3.65,3.65,0,0,1-.74.08,3.93,3.93,0,0,1-1.61-.39c-.06,0-.13,0-.19-.05L28.38,316.3a4,4,0,0,1-2.2-3.55l-2-246.57a3.41,3.41,0,0,1,.06-.43,1,1,0,0,1,0-.25s0-.09,0-.14a4.38,4.38,0,0,1,.27-.82c0-.09.07-.19.12-.28a3.65,3.65,0,0,1,.66-.91c.06-.06.13-.1.19-.15a4,4,0,0,1,.6-.48l.12-.06c.12-.06.24-.1.37-.15a3.94,3.94,0,0,1,.73-.25l.18-.06L253,24.11a4,4,0,0,1,2.32.3l89.2,40.09a3.49,3.49,0,0,1,.68.45c.07,0,.16.06.23.11s0,.06.06.08a4.07,4.07,0,0,1,.94,1.2,3.4,3.4,0,0,1,.12.34,4.19,4.19,0,0,1,.28,1.16c0,.09.06.17.06.27l3,241.55A4,4,0,0,1,346.66,313.65Z"/><polygon class="cls-4" points="159.81 105.38 114.4 113.6 115.36 348.99 341.86 306.4 338.96 72.95 159.81 105.38"/><path class="cls-5" d="M346.86,67.84a4.19,4.19,0,0,0-.28-1.16,3.4,3.4,0,0,0-.12-.34,4.07,4.07,0,0,0-.94-1.2s0-.06-.06-.08-.16-.06-.23-.11a3.49,3.49,0,0,0-.68-.45l-89.2-40.09a4,4,0,0,0-2.32-.3L27.51,62.2l-.18.06a3.94,3.94,0,0,0-.73.25c-.13.05-.25.09-.37.15l-.12.06a4,4,0,0,0-.6.48c-.06,0-.13.09-.19.15a3.65,3.65,0,0,0-.66.91c-.05.09-.08.19-.12.28a4.38,4.38,0,0,0-.27.82s0,.09,0,.14a1,1,0,0,0,0,.25,3.41,3.41,0,0,0-.06.43l2,246.57a4,4,0,0,0,2.2,3.55l81.19,41.09c.06,0,.13,0,.19.05a3.93,3.93,0,0,0,1.61.39,3.65,3.65,0,0,0,.74-.08l234.55-44.1a4,4,0,0,0,3.26-4l-3-241.55C346.92,68,346.86,67.93,346.86,67.84ZM34.18,310.25,32.25,72.88l74.12,39.78.79,191.23.18,43.39ZM111,106.06,40.39,68.16,253.17,32.22l76.3,34.29ZM115.36,349l-1-235.38,45.41-8.22L339,73l2.9,233.45Z"/></svg>