<svg id="Layer_1" data-name="Layer 1" xmlns="http://www.w3.org/2000/svg" viewBox="0 0 416.01 400.9"><defs><style>.cls-1{fill:#ee395a;}.cls-2{fill:#f05d73;}.cls-3{fill:#ed224d;}.cls-4{fill:#fff;}.cls-5{fill:#93072a;}</style></defs><title>Artboard 3</title><polygon class="cls-1" points="48.8 206.59 199.69 359.17 176.09 272.35 48.8 206.59"/><polygon class="cls-2" points="176.18 263.37 202.34 38.21 35.11 190.5 122.44 235.61 176.18 263.37"/><polygon class="cls-1" points="184.17 264.1 380.35 208.45 210.58 36.79 184.17 264.1"/><polygon class="cls-3" points="209.72 365.5 372.46 219.03 184.41 272.37 209.72 365.5"/><path class="cls-4" d="M415.89,207.93l-.17-1.72-.26-1.32a27.49,27.49,0,0,0-1.09-3.9l-.45-1.69-3.15-5.51-1-1c-.59-.72-1.21-1.42-1.87-2.08L226.07,6.83l-.17-.12-.29-.28-1.14-.76-.6-.45-1.22-1L220.15,3l-2.28-1.12-1.36-.37a24.85,24.85,0,0,0-3.59-1,26.77,26.77,0,0,0-3.31-.43c-.73,0-1.45-.08-2.17-.08H206l-1.14.11c-1,.1-2,.25-2.81.42a26.38,26.38,0,0,0-3.85,1l-2.36.85-1.35.81-.8.43c-.58.34-1.14.68-1.68,1l-1.45.85L9.36,170.57c-.35.32-.68.63-1,.93l-1,.82-1.49,2-2.25,2.81-.76,2.08a28,28,0,0,0-1.46,3.69L1,184.47l-.22,1.1a28.42,28.42,0,0,0-.62,5.6L0,193l.38,2.44a28,28,0,0,0,1.93,6.88L3,204l.6,1c.43.77.9,1.53,1.42,2.28l.92,1.62L187.7,392.66l2.76,2.75,1.67.84a27.81,27.81,0,0,0,3.32,1.86l2.05,1,2.13.67a27.69,27.69,0,0,0,16.74-.3l.5-.17c.49-.17.95-.35,1.42-.55a24.64,24.64,0,0,0,3.35-1.62h0l1.39-.8.93-.47L406.58,231.48l2.44-2.12,1-1.52a25,25,0,0,0,2.5-3.76l1-1.78.36-1a27.14,27.14,0,0,0,1.2-3.41l.65-2.43s.16-2.08.18-2.24A27.65,27.65,0,0,0,415.89,207.93Zm-24,2.94a2.73,2.73,0,0,1-.05.4,1.52,1.52,0,0,1,0,.21,3.65,3.65,0,0,1-.29.71c0,.07-.05.15-.08.21a3.93,3.93,0,0,1-.76,1l-.06.08L210.24,375.81a2.49,2.49,0,0,1-.32.2,3.58,3.58,0,0,1-.36.3,3,3,0,0,1-.38.15,2.28,2.28,0,0,1-.36.15,3.9,3.9,0,0,1-1.26.23,4,4,0,0,1-1.13-.16l-.25-.11-.3-.13a4.14,4.14,0,0,1-1.15-.77l0,0h0L25.3,194.23c-.05,0-.06-.1-.11-.14a4.09,4.09,0,0,1-.6-.89,2.39,2.39,0,0,1-.12-.22,4.14,4.14,0,0,1-.3-1,.75.75,0,0,0,0-.15,2.43,2.43,0,0,1,0-.27,3.81,3.81,0,0,1,.1-1c0-.09,0-.19.07-.29a3.77,3.77,0,0,1,.55-1.12s0,0,0-.06.09-.07.12-.12a3.63,3.63,0,0,1,.41-.47L204.86,25.07c.06-.05.13-.07.18-.12a4.28,4.28,0,0,1,.57-.37,4,4,0,0,1,.46-.24c.06,0,.12-.07.18-.09a3.58,3.58,0,0,1,.45-.09,3.7,3.7,0,0,1,.48-.09,3.47,3.47,0,0,1,.72,0,3.28,3.28,0,0,1,.43,0,4.6,4.6,0,0,1,.77.25c.09,0,.2.05.29.1s0,0,.05,0a4.51,4.51,0,0,1,.76.56l.19.14,0,0L390.83,207.64a3.62,3.62,0,0,1,.64.87h0a.32.32,0,0,0,0,.09,3.89,3.89,0,0,1,.36,1,2.6,2.6,0,0,1,.05.39A3.84,3.84,0,0,1,391.93,210.87Z"/><path class="cls-5" d="M391.52,208.61a.32.32,0,0,1,0-.09h0a3.62,3.62,0,0,0-.64-.87L210.41,25.22l0,0-.19-.14a4.51,4.51,0,0,0-.76-.56s0,0-.05,0-.2-.06-.29-.1a4.6,4.6,0,0,0-.77-.25,3.28,3.28,0,0,0-.43,0,3.47,3.47,0,0,0-.72,0,3.7,3.7,0,0,0-.48.09,3.58,3.58,0,0,0-.45.09c-.06,0-.12.07-.18.09a4,4,0,0,0-.46.24A4.28,4.28,0,0,0,205,25c0,.05-.12.07-.18.12L25.45,188.45a3.63,3.63,0,0,0-.41.47c0,.05-.09.07-.12.12s0,0,0,.06a3.77,3.77,0,0,0-.55,1.12c0,.1-.05.2-.07.29a3.81,3.81,0,0,0-.1,1,2.43,2.43,0,0,0,0,.27.75.75,0,0,1,0,.15,4.14,4.14,0,0,0,.3,1,2.39,2.39,0,0,0,.12.22,4.09,4.09,0,0,0,.6.89s.06.1.11.14L204.69,375.64h0l0,0a4.14,4.14,0,0,0,1.15.77l.3.13.25.11a4,4,0,0,0,1.13.16,3.9,3.9,0,0,0,1.26-.23,2.28,2.28,0,0,0,.36-.15,3,3,0,0,0,.38-.15,3.58,3.58,0,0,0,.36-.3,2.49,2.49,0,0,0,.32-.2L390.66,213.44l.06-.08a3.93,3.93,0,0,0,.76-1c0-.06,0-.14.08-.21a3.65,3.65,0,0,0,.29-.71,1.52,1.52,0,0,0,0-.21,2.73,2.73,0,0,0,.05-.4,3.84,3.84,0,0,0,0-.83,2.6,2.6,0,0,0-.05-.39A3.89,3.89,0,0,0,391.52,208.61ZM202.34,38.21,176.18,263.37l-53.74-27.76L35.11,190.5ZM48.8,206.59l127.29,65.76,23.6,86.82ZM209.72,365.5l-25.31-93.13,188-53.35ZM184.17,264.1,210.58,36.79,380.35,208.45Z"/></svg>