<svg id="Layer_1" data-name="Layer 1" xmlns="http://www.w3.org/2000/svg" viewBox="0 0 358.81 382.88"><defs><style>.cls-1{fill:#fff;}.cls-2{fill:#b068a9;}.cls-3{fill:#965890;}.cls-4{fill:#7e3e75;}.cls-5{fill:#491843;}</style></defs><title>Artboard 9</title><path class="cls-1" d="M205.09,14.72l-1.74-3.43-2-1.81L201,9,199.1,7.12l-.9-.74A25.83,25.83,0,0,0,194.73,4L193.3,3l-1.7-.66-4.06-2H184A24.57,24.57,0,0,0,180.39,0l-3.15,0-.88.22H175l-4.23,1.43a24.87,24.87,0,0,0-3.95,1.84,26,26,0,0,0-4.1,2.71l-1.06.86-.66.67a27.79,27.79,0,0,0-1.91,2.05l-1.44,1.45L3.74,276.62a28.17,28.17,0,0,0,7,36.17L93,377a24.56,24.56,0,0,0,3.74,2.4l1.09.64,1.56.65a28.06,28.06,0,0,0,10.82,2.2H245.54a27.48,27.48,0,0,0,10.56-2.1c.75-.31,1.46-.64,2.06-.94L260,379l87.29-63.67a28,28,0,0,0,7.86-36.54Zm128,281.19-85.2,62.15a4.51,4.51,0,0,1-.44.22,3.84,3.84,0,0,1-.4.21,4,4,0,0,1-1.52.34H110.23a4,4,0,0,1-1.55-.35c-.15-.07-.27-.15-.41-.23a3.1,3.1,0,0,1-.51-.27L25.57,293.83a4,4,0,0,1-1-5.17L176.92,26.05l0-.05a4.42,4.42,0,0,1,.44-.53,4.49,4.49,0,0,1,.41-.46.34.34,0,0,1,.06-.06,4.15,4.15,0,0,1,.74-.42,2.88,2.88,0,0,1,.38-.22h0a3.89,3.89,0,0,1,1.08-.2c.1,0,.19,0,.29,0h0a4,4,0,0,1,.48.08,3.85,3.85,0,0,1,.92.18h0a2.07,2.07,0,0,1,.32.19,4,4,0,0,1,.8.47l.05,0c.15.14.26.32.4.47a4.51,4.51,0,0,1,.44.54l0,0L334.22,290.69A4,4,0,0,1,333.1,295.91Z"/><polygon class="cls-2" points="171.15 51.98 33.26 289.66 107.65 347.72 128.17 252.17 171.15 51.98"/><polygon class="cls-3" points="180.24 47.84 121.42 321.76 115.19 350.81 240.65 350.81 229.79 296.34 180.24 47.84"/><polygon class="cls-4" points="214.8 180.17 248.24 347.88 325.48 291.54 189.18 51.66 214.8 180.17"/><path class="cls-5" d="M183.87,26.08l0,0a4.51,4.51,0,0,0-.44-.54c-.14-.15-.25-.33-.4-.47L183,25a4,4,0,0,0-.8-.47,2.07,2.07,0,0,0-.32-.19h0a3.85,3.85,0,0,0-.92-.18,4,4,0,0,0-.48-.08h0c-.1,0-.19,0-.29,0a3.89,3.89,0,0,0-1.08.2h0a2.88,2.88,0,0,0-.38.22,4.15,4.15,0,0,0-.74.42.34.34,0,0,0-.06.06,4.49,4.49,0,0,0-.41.46A4.42,4.42,0,0,0,177,26l0,.05L24.57,288.66a4,4,0,0,0,1,5.17L107.76,358a3.1,3.1,0,0,0,.51.27c.14.08.26.16.41.23a4,4,0,0,0,1.55.35H245.54a4,4,0,0,0,1.52-.34,3.84,3.84,0,0,0,.4-.21,4.51,4.51,0,0,0,.44-.22l85.2-62.15a4,4,0,0,0,1.12-5.22ZM107.65,347.72,33.26,289.66,171.15,52l-43,200.2Zm7.54,3.09,6.23-29.05L180.24,47.84l49.55,248.5,10.86,54.47Zm133.05-2.93L214.8,180.17,189.18,51.66l136.3,239.88Z"/></svg>