<svg id="Layer_1" data-name="Layer 1" xmlns="http://www.w3.org/2000/svg" viewBox="0 0 362.9 365.85"><defs><style>.cls-1{fill:#a32018;}.cls-2{fill:#fff;}.cls-3{fill:#c62a24;}.cls-4{fill:#ed342d;}.cls-5{fill:#660100;}</style></defs><title>Artboard 8</title><polygon class="cls-1" points="155.29 332.57 330.74 289.63 330.96 95.35 155.51 135.63 155.29 332.57"/><path class="cls-2" d="M362.19,84.16a27.52,27.52,0,0,0-1-3.54l-.33-1-.83-1.8-.24-.47a27.75,27.75,0,0,0-3.05-4.69l-1.18-1.9-3.37-2.62A23.92,23.92,0,0,0,350,66.6a26.76,26.76,0,0,0-3.13-1.76L215.54,2.7a28.35,28.35,0,0,0-12-2.7,27.23,27.23,0,0,0-6.11.68L22,39.77l-2.51.62-.88.38q-.79.28-1.59.63l-1.91.69-1.5,1L11.58,44.2l-1.33,1.32a29.3,29.3,0,0,0-2.5,2.35L6.31,49.42l-.75,1.11a27.4,27.4,0,0,0-2.35,3.76A25.58,25.58,0,0,0,2,57c-.26.67-.49,1.34-.7,2L.56,60.94.24,64l-.18,1v.74L0,66.44l.06.8V270.63A28,28,0,0,0,14.7,295.27L138,362.43l2.06,1.08,1.26.43.4.17,1.72.56a28.32,28.32,0,0,0,8,1.18,27.93,27.93,0,0,0,6.7-.82l183.41-45.1a28,28,0,0,0,21.38-27.25V90.21l0-4ZM338.84,292.68a4,4,0,0,1-3,3.89L152.37,341.68a4.49,4.49,0,0,1-1,.11,3.86,3.86,0,0,1-1.16-.19l-.35-.14a3.47,3.47,0,0,1-.41-.16L26.21,274.15a4,4,0,0,1-2.09-3.52V67.16c0-.11,0-.2,0-.31a1.55,1.55,0,0,1,0-.22c0-.07.05-.13.06-.21a4.44,4.44,0,0,1,.21-.71,2.43,2.43,0,0,1,.16-.37,3.89,3.89,0,0,1,.45-.69c.07-.07.11-.16.18-.23a3.78,3.78,0,0,1,.85-.69l0,0,.16-.07a4,4,0,0,1,.92-.36s0,0,.08,0L202.66,24.16a3.92,3.92,0,0,1,2.59.28l131.3,62.15a4.24,4.24,0,0,1,.56.38c.07,0,.16,0,.22.11s.05.07.08.1a3.93,3.93,0,0,1,1,1.21l.11.3a4.26,4.26,0,0,1,.29,1.28c0,.08,0,.16,0,.24Z"/><polygon class="cls-3" points="32.14 268.25 147.4 331.03 147.4 134.72 32.14 73.81 32.14 268.25"/><polygon class="cls-4" points="203.06 32.28 39.69 68.69 152.66 127.91 322.67 88.89 203.06 32.28"/><path class="cls-5" d="M338.5,88.69l-.11-.3a3.93,3.93,0,0,0-1-1.21s0-.08-.08-.1-.15-.06-.22-.11a4.24,4.24,0,0,0-.56-.38L205.25,24.44a3.92,3.92,0,0,0-2.59-.28L27.25,63.25s-.05,0-.08,0a4,4,0,0,0-.92.36l-.16.07,0,0a3.78,3.78,0,0,0-.85.69c-.07.07-.11.16-.18.23a3.89,3.89,0,0,0-.45.69,2.43,2.43,0,0,0-.16.37,4.44,4.44,0,0,0-.21.71c0,.08-.05.14-.06.21a1.55,1.55,0,0,0,0,.22c0,.11,0,.2,0,.31V270.63a4,4,0,0,0,2.09,3.52L149.49,341.3a3.47,3.47,0,0,0,.41.16l.35.14a3.86,3.86,0,0,0,1.16.19,4.49,4.49,0,0,0,1-.11l183.42-45.11a4,4,0,0,0,3-3.89V90.21c0-.08,0-.16,0-.24A4.26,4.26,0,0,0,338.5,88.69ZM147.4,331,32.14,268.25V73.81L147.4,134.73ZM39.69,68.69,203.06,32.28,322.67,88.89l-170,39ZM330.83,289.54,155.42,332.67V135.73L330.83,95.25Z"/></svg>