<svg id="Layer_1" data-name="Layer 1" xmlns="http://www.w3.org/2000/svg" viewBox="0 0 316.73 374.87"><defs><style>.cls-1{fill:#006783;}.cls-2{fill:#0092b9;}.cls-3{fill:#fff;}.cls-4{fill:#007e9e;}.cls-5{fill:#00abd9;}.cls-6{fill:#224655;}</style></defs><title>Artboard 2</title><polygon class="cls-1" points="260.61 113.42 261.55 318.89 284.66 288.32 284.66 75.85 265.83 105.26 260.61 113.42"/><polygon class="cls-2" points="123.28 126.2 32.07 96.72 32.07 310.84 123.28 341.24 123.28 126.2"/><path class="cls-3" d="M19.19,340.35l99.1,33a27.8,27.8,0,0,0,9,1.49,29.34,29.34,0,0,0,3.43-.21l130.22-16a26,26,0,0,0,5.11-1.14l1.71-.4,2.68-1.38A28.3,28.3,0,0,0,276,352l1.64-1.13,33.46-44.26a28.2,28.2,0,0,0,5.65-16.89V62.15a27.81,27.81,0,0,0-.22-3.54V56.82l-1.78-5.23-.45-.89c-.32-.72-.68-1.43-1.07-2.12l-.62-1.24-.44-.5a30.47,30.47,0,0,0-2.57-3.35,28.82,28.82,0,0,0-6.15-5.16l-1.53-1.17-3.3-1.26L204,1.66A28.11,28.11,0,0,0,194.46,0a25.08,25.08,0,0,0-3.29.2l-136.32,16A28,28,0,0,0,34.48,29L4.28,76.31l-2.2,3.55-.43,2A28.74,28.74,0,0,0,.31,87.24c0,.17-.31,2-.31,2V313.73A28,28,0,0,0,19.19,340.35ZM24.06,91.21c0-.11,0-.21,0-.32l0-.25a4,4,0,0,1,.53-1.48s0-.07,0-.1L54.76,42a4,4,0,0,1,2.9-1.83L194,24.09a3.82,3.82,0,0,1,1.83.21L290,58.38c.08,0,.13.1.21.13a3.93,3.93,0,0,1,1.08.7c.11.1.21.19.31.3a3.9,3.9,0,0,1,.82,1.33v0h0a4,4,0,0,1,.22,1.29V289.67a4,4,0,0,1-.82,2.42l-31.07,41.1-.1.08a4,4,0,0,1-1.28,1.06,3.18,3.18,0,0,1-.33.1,3.75,3.75,0,0,1-1,.31l-130.3,16a4.05,4.05,0,0,1-1.75-.17L26.8,317.53a4,4,0,0,1-2.74-3.8Z"/><polygon class="cls-4" points="252.6 116.63 146.76 125.65 131.3 126.97 131.3 342.27 253.57 327.22 252.94 189.25 252.6 116.63"/><polygon class="cls-5" points="228.98 110.59 254.28 108.44 282.58 64.21 193.97 32.16 60.49 47.86 34.23 88.99 127.76 119.22 228.98 110.59"/><path class="cls-6" d="M26.8,317.53,126,350.61a4.05,4.05,0,0,0,1.75.17l130.3-16a3.75,3.75,0,0,0,1-.31,3.18,3.18,0,0,0,.33-.1,4,4,0,0,0,1.28-1.06l.1-.08,31.07-41.1a4,4,0,0,0,.82-2.42V62.15a4,4,0,0,0-.22-1.29h0v0a3.9,3.9,0,0,0-.82-1.33c-.1-.11-.2-.2-.31-.3a3.93,3.93,0,0,0-1.08-.7c-.08,0-.13-.1-.21-.13L195.81,24.3a3.82,3.82,0,0,0-1.83-.21l-136.32,16A4,4,0,0,0,54.76,42L24.69,89.06s0,.07,0,.1a4,4,0,0,0-.53,1.48l0,.25c0,.11,0,.21,0,.32V313.73A4,4,0,0,0,26.8,317.53Zm104.5,24.74V127l15.46-1.32,105.84-9,.34,72.62.63,138Zm153.36-53.94-23.11,30.56-.94-205.47,5.22-8.16,18.83-29.41ZM60.49,47.86,194,32.16l88.62,32.05-28.31,44.23L229,110.59l-101.22,8.63L34.24,89ZM32.07,96.72l91.21,29.49v215l-91.21-30.4Z"/></svg>