<svg id="Layer_1" data-name="Layer 1" xmlns="http://www.w3.org/2000/svg" viewBox="0 0 417.02 386.34"><defs><style>.cls-1{fill:#6ab745;}.cls-2{fill:#a5c739;}.cls-3{fill:#fff;}.cls-4{fill:#306621;}</style></defs><title>Artboard 4</title><polygon class="cls-1" points="134.98 353.24 382.34 308.61 208.94 38.31 134.98 353.24"/><polygon class="cls-2" points="199.38 43.91 33.4 244.58 127.54 349.86 174.78 148.71 199.38 43.91"/><path class="cls-3" d="M230.94,13.22a26.14,26.14,0,0,0-2.61-3.46c-.54-.62-1.12-1.24-1.83-1.93a29.08,29.08,0,0,0-2.82-2.33l-1.52-1.28L219.51,3l-3-1.48L214.9,1.2a27.22,27.22,0,0,0-3.31-.74L211.27.4l-3.4-.4L206.7.12a27.92,27.92,0,0,0-3.77.32l-3,.43-2,.84A27.6,27.6,0,0,0,193.7,3.6a24.53,24.53,0,0,0-3.06,2c-.58.43-1.14.87-1.66,1.31L187.46,8,6.48,226.8a27.9,27.9,0,0,0,.72,36.58L107.53,375.6l.38.6.12.11,2.19,3.3,3.74,1.87,1.51,1.2,3,1.3a27.93,27.93,0,0,0,16.23,1.91L394,339.11a28.06,28.06,0,0,0,18.61-42.77ZM392.62,313.1a4,4,0,0,1-3,2.34L130.39,362.22a4.17,4.17,0,0,1-.71.06,4,4,0,0,1-1.6-.34,2.7,2.7,0,0,1-.39-.27,3.89,3.89,0,0,1-.92-.64l0-.06,0,0L25.13,247.35a4,4,0,0,1-.1-5.23L204.11,25.62a2.09,2.09,0,0,1,.17-.14,3.87,3.87,0,0,1,.61-.53,3.19,3.19,0,0,1,.38-.26,3.53,3.53,0,0,1,.78-.31c.13,0,.25-.1.39-.13l.08,0a4,4,0,0,1,1.15,0h0a3.68,3.68,0,0,1,1.22.37l.07,0c.08,0,.14.11.22.16a3.78,3.78,0,0,1,.74.54,2.83,2.83,0,0,1,.32.37c.1.12.22.22.31.35L392.32,309.33A4,4,0,0,1,392.62,313.1Z"/><path class="cls-4" d="M210.57,26c-.09-.13-.21-.23-.31-.35a2.83,2.83,0,0,0-.32-.37,3.78,3.78,0,0,0-.74-.54c-.08-.05-.14-.12-.22-.16l-.07,0a3.68,3.68,0,0,0-1.22-.37h0a4,4,0,0,0-1.15,0l-.08,0c-.14,0-.26.09-.39.13a3.53,3.53,0,0,0-.78.31,3.19,3.19,0,0,0-.38.26,3.87,3.87,0,0,0-.61.53,2.09,2.09,0,0,0-.17.14L25,242.12a4,4,0,0,0,.1,5.23L126.7,361l0,0,0,.06a3.89,3.89,0,0,0,.92.64,2.7,2.7,0,0,0,.39.27,4,4,0,0,0,1.6.34,4.17,4.17,0,0,0,.71-.06l259.27-46.78a4,4,0,0,0,2.66-6.11Zm-83,323.85L33.4,244.58l166-200.67-24.61,104.8Zm7.44,3.38,74-314.93,173.4,270.3Z"/></svg>