<svg id="Layer_1" data-name="Layer 1" xmlns="http://www.w3.org/2000/svg" viewBox="0 0 375.85 384.88"><defs><style>.cls-1{fill:#41b67e;}.cls-2{fill:#fff;}.cls-3{fill:#77c397;}.cls-4{fill:#006f45;}</style></defs><title>Artboard 1</title><polygon class="cls-1" points="32.09 205.5 33.74 330.79 115.33 60.44 32.09 205.5"/><path class="cls-2" d="M150.29,9.42l-1.62-1.74-1-.78a27.63,27.63,0,0,0-2.74-2.1l-1.4-1.13-2.43-1.08L137.77.94,135.33.66A26.91,26.91,0,0,0,130.78,0l-.64,0h-2l-.42,0a27.69,27.69,0,0,0-3.94.49l-2.54.53-2,.83A28,28,0,0,0,113.38,5L112,5.87,110.82,7a26.9,26.9,0,0,0-3.12,3.2l-1,1-1.52,2.56L3.71,190.51A28.16,28.16,0,0,0,0,204.83l2,152,0,3.51.54,1.87a28.09,28.09,0,0,0,.91,3.45L3.93,367l.41.95a28.33,28.33,0,0,0,2.74,4.9l.69,1.06.18.21.51.76,1.4,1.4,2.2,2.37,2,1.13A27.66,27.66,0,0,0,17.77,382a27,27,0,0,0,3.53,1.42A24.57,24.57,0,0,0,26,384.57a28,28,0,0,0,4.11.31h0a27.43,27.43,0,0,0,6.45-.75L354.24,309a28.06,28.06,0,0,0,14.82-45.63ZM351.61,282.87a4,4,0,0,1-2.89,2.67L31,360.71a4,4,0,0,1-.91.11h0a3.43,3.43,0,0,1-.56,0,3,3,0,0,1-.6-.2,3.47,3.47,0,0,1-.57-.19,3.55,3.55,0,0,1-.9-.63c-.09-.08-.21-.11-.29-.2l0-.07a1.18,1.18,0,0,1-.13-.18,4.11,4.11,0,0,1-.55-.89,3.4,3.4,0,0,1-.12-.34,3.92,3.92,0,0,1-.2-1,1.42,1.42,0,0,1,0-.2l-2-152.35a4.11,4.11,0,0,1,.54-2L125.82,26.06s0,0,.05-.06a3.66,3.66,0,0,1,.85-1,1.77,1.77,0,0,1,.24-.17,3.58,3.58,0,0,1,.9-.49,2.19,2.19,0,0,1,.33-.12c.09,0,.18-.08.27-.1a3.69,3.69,0,0,1,.81-.06,1.77,1.77,0,0,1,.23,0,4.26,4.26,0,0,1,1.26.28s.08,0,.12,0,.12.09.18.12a4.19,4.19,0,0,1,.86.58l.26.23c0,.05.11.09.15.14L350.84,279A4,4,0,0,1,351.61,282.87Z"/><polygon class="cls-3" points="88.2 178.09 35.92 351.31 340.45 279.26 131.02 36.2 88.2 178.09"/><path class="cls-4" d="M132.33,25.44c0-.05-.1-.09-.15-.14l-.26-.23a4.19,4.19,0,0,0-.86-.58c-.06,0-.11-.09-.18-.12s-.08,0-.12,0a4.26,4.26,0,0,0-1.26-.28,1.77,1.77,0,0,0-.23,0,3.69,3.69,0,0,0-.81.06c-.09,0-.18.07-.27.1a2.19,2.19,0,0,0-.33.12,3.58,3.58,0,0,0-.9.49,1.77,1.77,0,0,0-.24.17,3.66,3.66,0,0,0-.85,1s0,0-.05.06L24.59,202.46a4.11,4.11,0,0,0-.54,2l2,152.35a1.42,1.42,0,0,0,0,.2,3.92,3.92,0,0,0,.2,1,3.4,3.4,0,0,0,.12.34,4.11,4.11,0,0,0,.55.89,1.18,1.18,0,0,0,.13.18l0,.07c.08.09.2.12.29.2a3.55,3.55,0,0,0,.9.63,3.47,3.47,0,0,0,.57.19,3,3,0,0,0,.6.2,3.43,3.43,0,0,0,.56,0h0a4,4,0,0,0,.91-.11l317.73-75.17a4,4,0,0,0,2.12-6.52ZM32.09,205.51,115.33,60.44,33.74,330.79Zm3.83,145.8L88.2,178.09,131,36.2,340.46,279.26Z"/></svg>