<svg id="Layer_1" data-name="Layer 1" xmlns="http://www.w3.org/2000/svg" viewBox="0 0 309.38 375.53"><defs><style>.cls-1{fill:#fff470;}.cls-2{fill:#fbb017;}.cls-3{fill:#f5871f;}.cls-4{fill:#fff;}.cls-5{fill:#632400;}</style></defs><title>Artboard 6</title><polygon class="cls-1" points="272.41 82.32 198.75 32.21 37.72 49.09 32.47 98.7 176.95 114.75 272.41 82.32"/><polygon class="cls-2" points="173.06 122.53 32.07 106.72 32.07 325.23 173.06 342.92 173.06 122.53"/><polygon class="cls-3" points="181.08 341.77 277.3 307.23 277.3 89.15 181.08 122.26 181.08 341.77"/><path class="cls-4" d="M173.79,375.34a28.31,28.31,0,0,0,12.77-1.45l104.23-37.42a28.14,28.14,0,0,0,18.59-26.42V83.53l0-2.24-.2-1.17-.07-.84L308.81,78a27.12,27.12,0,0,0-1.1-3.9l-.43-1.26-.57-1.22A27,27,0,0,0,304.64,68L304,66.88l-1.31-1.59a29.85,29.85,0,0,0-2.48-2.55l-1.35-1.43-2-1.19-.7-.51-.29-.14L215.53,4.83A27.92,27.92,0,0,0,199.83,0a25.3,25.3,0,0,0-3,.16L31.17,17.53a28.2,28.2,0,0,0-25,24.95l-5.82,55L0,98.61V328.76a28.11,28.11,0,0,0,24.57,27.85ZM24.06,102.24c0-.07,0-.13,0-.2a1.8,1.8,0,0,1,0-.22l6-56.8a4,4,0,0,1,3.57-3.57L199.37,24.08a4,4,0,0,1,2.68.67l81.52,55.46.05.05h0a3.82,3.82,0,0,1,.72.67c.05.06.08.13.13.2a3.59,3.59,0,0,1,.42.67c.05.11.08.22.12.33a3.72,3.72,0,0,1,.19.65,2.6,2.6,0,0,1,0,.39c0,.12,0,.23,0,.35V310.05a4,4,0,0,1-2.65,3.78L178.43,351.24a4,4,0,0,1-1.36.24l-.5,0-149-18.71a4,4,0,0,1-3.5-4Z"/><path class="cls-5" d="M27.56,332.74l149,18.71.5,0a4,4,0,0,0,1.36-.24l104.24-37.41a4,4,0,0,0,2.65-3.78V83.53c0-.12,0-.23,0-.35a2.6,2.6,0,0,0,0-.39,3.72,3.72,0,0,0-.19-.65c0-.11-.07-.22-.12-.33a3.59,3.59,0,0,0-.42-.67c-.05-.07-.08-.14-.13-.2a3.82,3.82,0,0,0-.72-.67h0l-.05-.05L202.05,24.75a4,4,0,0,0-2.68-.67L33.66,41.45A4,4,0,0,0,30.09,45l-6,56.8a1.8,1.8,0,0,0,0,.22c0,.07,0,.13,0,.2V328.76A4,4,0,0,0,27.56,332.74ZM277.3,307.23l-96.22,34.54V122.26L277.3,89.15ZM37.72,49.09l161-16.88,73.66,50.11L177,114.75,32.47,98.7Zm-5.65,57.63,141,15.81V342.92l-141-17.69Z"/></svg>